HIERARCHY
ROOT hip
{
	OFFSET 0.000000 0.000000 0.000000 
	CHANNELS 6 Xposition Yposition Zposition Xrotation Zrotation Yrotation
	JOINT abdomen
	{
		OFFSET 0.000000 3.402643 0.000000 
		CHANNELS 3 Xrotation Zrotation Yrotation
		JOINT chest
		{
			OFFSET 0.000000 8.438565 -0.680529 
			CHANNELS 3 Xrotation Zrotation Yrotation
			JOINT neck
			{
				OFFSET 0.000000 10.207942 -0.272212 
				CHANNELS 3 Xrotation Zrotation Yrotation
				JOINT head
				{
					OFFSET 0.000000 3.130431 0.000000 
					CHANNELS 3 Xrotation Zrotation Yrotation
					End Site
					{
						OFFSET 0.000000 3.130435 0.000000 
					}
				}
			}
			JOINT lCollar
			{
				OFFSET 3.470700 6.669187 -0.816635 
				CHANNELS 3 Yrotation Zrotation Xrotation
				JOINT lShldr
				{
					OFFSET 3.198488 0.000000 0.000000 
					CHANNELS 3 Zrotation Yrotation Xrotation
					JOINT lForeArm
					{
						OFFSET 10.139888 0.000000 0.000000 
						CHANNELS 3 Yrotation Zrotation Xrotation
						JOINT lHand
						{
							OFFSET 8.370511 0.000000 0.000000 
							CHANNELS 3 Zrotation Yrotation Xrotation
							End Site
							{
								OFFSET 4.083176 0.000000 0.000000 
							}
						}
					}
				}
			}
			JOINT rCollar
			{
				OFFSET -3.470700 6.669187 -0.816635 
				CHANNELS 3 Yrotation Zrotation Xrotation
				JOINT rShldr
				{
					OFFSET -3.198488 0.000000 0.000000 
					CHANNELS 3 Zrotation Yrotation Xrotation
					JOINT rForeArm
					{
						OFFSET -10.139888 0.000000 0.000000 
						CHANNELS 3 Yrotation Zrotation Xrotation
						JOINT rHand
						{
							OFFSET -8.370511 0.000000 0.000000 
							CHANNELS 3 Zrotation Yrotation Xrotation
							End Site
							{
								OFFSET -4.083176 0.000000 0.000000 
							}
						}
					}
				}
			}
		}
	}
	JOINT lThigh
	{
		OFFSET 5.308129 -1.633274 1.361059 
		CHANNELS 3 Xrotation Zrotation Yrotation
		JOINT lShin
		{
			OFFSET -2.041588 -20.007561 0.000000 
			CHANNELS 3 Xrotation Zrotation Yrotation
			JOINT lFoot
			{
				OFFSET 0.000000 -19.190928 -1.224953 
				CHANNELS 3 Xrotation Yrotation Zrotation
				End Site
				{
					OFFSET 0.000000 -2.449906 4.627600 
				}
			}
		}
	}
	JOINT rThigh
	{
		OFFSET -5.308129 -1.633274 1.361059 
		CHANNELS 3 Xrotation Zrotation Yrotation
		JOINT rShin
		{
			OFFSET 2.041588 -20.007561 0.000000 
			CHANNELS 3 Xrotation Zrotation Yrotation
			JOINT rFoot
			{
				OFFSET 0.000000 -19.190928 -1.224953 
				CHANNELS 3 Xrotation Yrotation Zrotation
				End Site
				{
					OFFSET 0.000000 -2.449906 4.627600 
				}
			}
		}
	}
}
MOTION
Frames: 16
Frame Time: 0.033333
-54.655243 47.213940 63.782154 -1.341558 -4.237123 118.038315 0.000000 0.000000 0.000000 1.172889 2.382314 17.021780 -4.021392 7.778709 -9.200145 1.323466 -4.659566 -3.409707 -3.519355 9.157742 6.311733 -72.047127 3.913444 -23.429115 -73.783928 0.768779 42.870804 2.597258 2.412173 -8.109532 3.090466 -14.082293 8.028685 80.079613 -16.239378 10.443549 12.315145 -11.720322 55.451347 0.210300 -4.432704 -8.330399 -14.289107 4.244454 8.015799 32.865997 -4.421874 -26.711546 -12.725246 -0.568230 4.136380 -26.962257 -4.160036 -9.676476 65.217560 -10.673015 -2.220993 9.975821 0.287608 8.672976 
-52.917847 47.011150 63.012817 -1.555192 -3.221471 120.565788 0.000000 0.000000 0.000000 2.428632 4.273516 9.868809 -3.833211 5.752712 -6.158473 1.552556 -4.274191 -1.590996 -3.519355 9.157742 6.311733 -68.166840 1.066543 -23.861326 -73.789474 2.775224 43.703823 3.772733 2.544937 -8.213777 3.090466 -14.082293 8.028685 80.758385 -17.371460 9.479145 11.622813 -11.429707 52.506828 -0.136614 -4.146412 -8.330453 -11.932285 4.579623 7.766397 34.264027 -3.425691 -28.086012 -13.986616 -0.899293 5.748223 -29.500000 -2.763777 -9.686497 61.001534 -8.951127 -3.200975 4.610471 -0.130609 5.665565 
-51.112221 46.834148 62.229286 -1.788771 -2.469501 122.362183 0.000000 0.000000 0.000000 3.321730 6.434575 3.791579 -3.207591 3.617608 -3.191763 1.277995 -4.310366 0.231219 -3.519355 9.157742 6.311733 -65.570786 -1.095020 -24.726734 -70.977844 5.170709 45.863159 5.697943 2.247391 -8.377943 3.090466 -14.082293 8.028685 81.497360 -18.251951 8.353283 11.131547 -11.453974 50.991497 1.304145 -5.589638 -8.345224 -9.534426 5.102677 7.671821 35.255623 -2.568907 -28.860886 -14.768344 -1.097101 6.574316 -30.836758 -1.630897 -9.187574 52.716133 -6.548434 -4.566012 0.924622 -0.212457 3.378330 
-49.331059 46.877438 61.361530 -1.837287 -2.196137 123.498116 0.000000 0.000000 0.000000 3.823270 8.691847 -1.490966 -2.851945 1.043197 -0.314628 1.085641 -3.940551 1.710459 -3.519355 9.157742 6.311733 -64.955399 -2.795833 -24.210138 -64.907326 8.882004 47.615578 8.866900 1.859643 -8.661146 3.090466 -14.082293 8.028685 82.014183 -18.478048 7.290922 10.673214 -11.536750 50.478760 2.974884 -5.046333 -8.204047 -6.595827 5.784310 8.306728 34.662853 -2.645540 -30.665016 -14.125716 -1.005748 6.274535 -31.384232 -1.152606 -7.537745 41.596729 -4.029035 -2.816201 1.082542 -0.186851 2.751480 
-47.559311 46.835991 60.358463 -1.729764 -2.176743 124.030510 0.000000 0.000000 0.000000 2.971907 9.664966 -4.792480 -1.658564 0.412030 1.103405 1.077901 -4.715079 2.965419 -3.519355 9.157742 6.311733 -64.947586 -4.974974 -21.174152 -58.328571 12.449133 49.122139 12.603297 2.002864 -8.990666 3.090466 -14.082293 8.028685 83.149506 -19.664141 5.100116 10.483813 -11.874147 50.354195 3.935468 -4.376667 -8.084766 -3.962173 6.195421 8.905442 34.559536 -2.678260 -32.705700 -12.870207 -0.758046 5.262156 -29.459614 -1.347736 -6.689242 25.839346 -0.035791 -1.531986 1.977797 -0.142034 1.661056 
-45.643959 46.693577 59.243252 -1.426721 -2.079434 124.211891 0.000000 0.000000 0.000000 1.593049 9.264058 -6.607343 0.744811 1.376282 1.367213 -0.025173 -5.812823 3.965869 -3.519355 9.157742 6.311733 -65.425598 -6.358969 -17.245159 -52.647049 14.628617 48.949425 13.640185 1.459378 -9.115832 3.090466 -14.082293 8.028685 85.085266 -21.481747 2.083264 10.244356 -12.375310 49.291073 5.404240 -3.673546 -7.901228 -0.859659 6.491286 9.660948 34.454037 -2.762985 -33.864006 -12.056308 -0.628740 4.621911 -26.016716 -1.922611 -6.847260 9.311612 4.343228 -1.056907 4.327608 -0.061212 1.060575 
-43.700794 46.632206 58.114326 -1.055470 -2.206657 124.649986 0.000000 0.000000 0.000000 0.236746 8.115167 -8.295614 1.458238 3.154919 0.927075 0.149539 -7.100542 4.567331 -3.519355 9.157742 6.311733 -66.948875 -7.698081 -13.182656 -45.170902 16.858187 47.944489 13.420688 0.504819 -9.141221 3.090466 -14.082293 8.028685 87.183617 -22.340870 -1.500111 9.650564 -12.880436 45.602283 5.829013 -2.162542 -7.700569 2.526250 6.626111 10.420332 33.099133 -3.005018 -34.999828 -9.779482 -0.334428 2.958982 -27.209644 -2.743045 -6.768842 6.351813 5.728274 5.669460 3.188071 -0.105880 2.443658 
-41.620178 46.575855 56.923882 -1.279899 -1.757374 124.687668 0.000000 0.000000 0.000000 -0.454043 8.359117 -9.362184 0.627046 3.483346 0.857951 1.446937 -7.810531 4.716686 -3.519355 9.157742 6.311733 -70.869537 -10.353665 -8.892990 -32.463661 21.563490 45.742737 12.547886 -0.338915 -9.092436 3.090466 -14.082293 8.028685 88.157799 -22.610365 -2.310317 8.835256 -12.835259 43.302040 4.162869 -1.828601 -7.799866 6.156391 7.758837 11.867257 31.828951 -3.317291 -37.168449 -6.443199 0.014878 0.380152 -26.549715 -2.577779 -7.191694 5.407616 6.579335 7.023066 3.074412 -0.140982 3.486774 
-39.338943 46.068169 55.605221 -2.343846 -0.517145 123.507500 0.000000 0.000000 0.000000 -0.416559 10.058333 -8.763042 -0.369145 2.662472 1.317010 2.752620 -8.190118 4.810785 -3.519355 9.157742 6.311733 -74.624557 -10.800318 -7.432185 -22.687586 22.906357 43.551777 12.072411 -1.278518 -9.074395 3.090466 -14.082293 8.028685 87.418480 -22.322863 -1.592628 7.769800 -12.560561 41.923462 5.631135 -1.125401 -7.598452 9.234890 9.822886 13.758640 33.426723 -3.061522 -39.042538 -4.012848 0.244329 -2.152075 -24.364237 -1.044962 -7.701570 6.520910 6.812512 4.886321 5.876988 -0.040463 4.248761 
-36.889217 45.698212 54.337662 -4.134481 2.396099 121.194191 0.000000 0.000000 0.000000 1.030237 12.488278 -7.246839 -1.108364 1.850864 2.007693 4.061460 -8.489270 5.085804 -3.519355 9.157742 6.311733 -76.715240 -5.730722 -10.295595 -23.257818 17.030666 43.862003 11.674439 -1.981530 -9.051282 3.090466 -14.082293 8.028685 86.106850 -20.171377 1.269192 7.012688 -12.259877 43.070934 8.222445 -1.513812 -7.407735 13.517881 13.160400 16.905169 35.278748 -2.748453 -40.097492 -0.262130 0.453954 -6.715158 -22.534563 2.431652 -9.136142 11.603745 8.295528 0.393820 4.835000 -0.107469 4.076185 
-34.561901 45.824734 53.248333 -6.352116 6.697290 118.504753 0.000000 0.000000 0.000000 4.382314 15.688693 -5.228183 -1.464663 0.847201 2.750748 4.851519 -8.478148 5.299740 -3.519355 9.157742 6.311733 -79.609726 -1.287645 -13.921733 -21.934679 11.401138 43.066284 13.306777 -2.218747 -9.268623 3.090466 -14.082293 8.028685 84.921501 -15.597729 5.176047 6.929127 -11.879350 45.642204 9.820827 -2.271233 -7.372674 18.051853 17.479042 21.748678 37.660213 -2.367596 -39.787384 6.170935 0.051993 -15.103553 -20.865923 7.430519 -8.537300 20.314930 6.598451 5.558691 -0.496242 -0.255530 3.218169 
-32.733612 45.877354 52.271992 -7.573341 8.471471 117.882561 0.000000 0.000000 0.000000 5.587905 17.042513 -3.618914 -1.695611 -0.163861 3.195866 5.458933 -7.830136 5.096793 -3.519355 9.157742 6.311733 -82.189949 0.848448 -15.197103 -17.075010 6.964244 39.054676 16.275755 -2.107915 -9.636710 3.090466 -14.082293 8.028685 84.374870 -11.308119 8.107892 6.927449 -11.576568 47.549152 8.937963 -1.687471 -7.360651 16.228796 20.732096 23.636135 45.262058 -0.771395 -36.666523 11.606125 -1.083099 -23.656664 -19.583374 9.831194 -7.998594 24.919077 5.183974 6.444644 -3.636456 -0.300214 2.570911 
-31.017551 46.111233 51.180492 -7.346855 8.504859 120.284996 0.000000 0.000000 0.000000 4.681798 16.763449 -3.498780 -1.876480 0.202565 2.506633 5.373313 -7.419964 4.527941 -3.519355 9.157742 6.311733 -84.772072 1.884162 -12.885562 -9.675529 3.697325 31.295954 13.807586 -1.621107 -9.304904 3.090466 -14.082293 8.028685 84.396866 -7.954433 8.199108 7.680275 -11.780469 48.873398 9.197748 -1.916601 -7.371277 9.436669 22.014681 20.256170 54.681118 2.510413 -30.842379 16.348906 -2.866137 -32.420311 -17.482660 8.727580 -9.365224 26.478395 5.744488 6.698965 -7.716024 -0.249050 1.289965 
-29.525812 46.400318 50.028473 -7.074988 8.219060 121.728317 0.000000 0.000000 0.000000 3.964360 16.603001 -0.877147 -2.439417 0.442116 1.234848 5.316997 -7.039299 3.361538 -3.519355 9.157742 6.311733 -87.226028 3.488289 -9.384880 -6.344649 0.505491 26.840174 7.160061 -1.318134 -8.497471 3.090466 -14.082293 8.028685 83.853325 -5.347696 6.302941 8.982860 -12.240998 48.001919 8.148442 -2.441937 -7.538881 1.805553 22.332897 17.022770 62.922741 3.904354 -24.132776 18.991961 -4.169788 -36.976620 -14.424800 7.194451 -11.112323 25.703426 7.287892 8.006226 -11.024930 -0.086543 -0.064412 
-28.427971 46.448345 48.970703 -7.089493 6.687233 119.376434 0.000000 0.000000 0.000000 3.402378 15.325776 6.087342 -3.164258 1.037079 -0.553887 5.435733 -6.942604 1.935576 -3.519355 9.157742 6.311733 -89.509018 5.026511 -8.501447 -5.526053 -0.422391 29.945145 0.724534 -2.058033 -7.678415 3.090466 -14.082293 8.028685 82.231583 -2.032742 5.077748 9.875307 -12.133402 45.652855 6.311578 -2.981360 -7.757668 -5.468992 21.167276 16.704636 70.120964 3.736701 -27.863211 14.049339 -1.962133 -28.789385 -14.940349 6.796415 -10.601501 28.574499 5.603874 10.845656 -12.482990 0.042702 -1.024286 
-27.398497 46.400986 47.813480 -6.203182 4.766977 115.029526 0.000000 0.000000 0.000000 3.191561 12.549484 14.503140 -3.354848 1.734233 -2.254340 4.710134 -6.644922 0.635988 -3.519355 9.157742 6.311733 -91.318665 7.249695 -9.073232 -5.650269 -0.086970 35.503540 -3.689646 -5.063155 -6.848108 3.090466 -14.082293 8.028685 79.857224 2.083925 4.831586 10.821118 -12.299335 46.173229 4.139869 -4.012073 -8.025871 -11.376453 20.133585 18.718735 73.704796 2.383756 -29.915535 11.508253 -1.108534 -24.943615 -15.483044 6.238531 -9.248466 31.402433 3.104486 12.860602 -14.410048 0.354302 -2.609271 
